<svg xmlns="http://www.w3.org/2000/svg" xmlns:xlink="http://www.w3.org/1999/xlink" fill="none" version="1.1" width="20" height="20" viewBox="0 0 20 20"><defs><clipPath id="master_svg0_1480_5257"><rect x="0" y="0" width="20" height="20" rx="0"/></clipPath></defs><g clip-path="url(#master_svg0_1480_5257)"><g><path d="M10.10439375,0.30859375C4.69379375,0.30859375,0.30859375,4.69399375,0.30859375,10.10449375C0.308493279,15.51389375,4.69369375,19.89979375,10.10439375,19.89979375C15.51389375,19.89979375,19.89969375,15.51389375,19.89969375,10.10449375C19.89969375,4.69399375,15.50899375,0.30859375,10.10439375,0.30859375ZM13.19409375,10.85059375L9.29439375,14.75119375C8.88119375,15.16489375,8.214593749999999,15.16489375,7.80159375,14.75119375C7.38829375,14.33729375,7.38829375,13.67249375,7.80159375,13.25879375L10.95579375,10.10449375L7.80159375,6.95009375C7.38829375,6.53649375,7.38829375,5.87049375,7.80159375,5.45719375C8.214593749999999,5.04419375,8.88119375,5.04419375,9.29439375,5.45719375L13.19409375,9.35769375C13.60799375,9.77079375,13.60799375,10.44169375,13.19409375,10.85059375Z" fill="#609CE2" fill-opacity="0.9215686321258545"/></g></g></svg>