<svg xmlns="http://www.w3.org/2000/svg" xmlns:xlink="http://www.w3.org/1999/xlink" fill="none" version="1.1" width="20" height="20" viewBox="0 0 20 20"><defs><clipPath id="master_svg0_1480_5518"><rect x="0" y="0" width="20" height="20" rx="0"/></clipPath></defs><g clip-path="url(#master_svg0_1480_5518)"><g transform="matrix(0,1,-1,0,20.00067138671875,-13.33270263671875)"><path d="M22.74409701171875,3.578062375C23.06953701171875,3.252625075,23.59716701171875,3.252625075,23.92261701171875,3.578062375C23.92261701171875,3.578062375,29.75598701171875,9.411394375,29.75598701171875,9.411394375C30.08138701171875,9.736834375,30.08138701171875,10.264464375,29.75598701171875,10.589914375C29.43048701171875,10.915344375,28.90288701171875,10.915344375,28.577487011718752,10.589914375C28.577487011718752,10.589914375,24.16668701171875,6.179164375,24.16668701171875,6.179164375C24.16668701171875,6.179164375,24.16668701171875,15.833984375,24.16668701171875,15.833984375C24.16668701171875,16.294284375,23.79358701171875,16.667284375,23.33335701171875,16.667284375C22.87311701171875,16.667284375,22.50001701171875,16.294284375,22.50001701171875,15.833984375C22.50001701171875,15.833984375,22.50001701171875,6.179164375,22.50001701171875,6.179164375C22.50001701171875,6.179164375,18.08927701171875,10.589914375,18.08927701171875,10.589914375C17.76383701171875,10.915344375,17.23620101171875,10.915344375,16.91076501171875,10.589914375C16.58532771171875,10.264464375,16.58532771171875,9.736834375,16.91076501171875,9.411394375C16.91076501171875,9.411394375,22.74409701171875,3.578062375,22.74409701171875,3.578062375C22.74409701171875,3.578062375,22.74409701171875,3.578062375,22.74409701171875,3.578062375Z" fill-rule="evenodd" fill="#4E89FF" fill-opacity="1"/></g></g></svg>