<svg xmlns="http://www.w3.org/2000/svg" xmlns:xlink="http://www.w3.org/1999/xlink" fill="none" version="1.1" width="16" height="16" viewBox="0 0 16 16"><defs><clipPath id="master_svg0_1480_6794"><rect x="0" y="0" width="16" height="16" rx="0"/></clipPath></defs><g clip-path="url(#master_svg0_1480_6794)"><g><path d="M2,2.666667C2,2.298477,2.298477,2,2.666667,2C2.666667,2,13.3333,2,13.3333,2C13.7015,2,14,2.298477,14,2.666667C14,2.666667,14,4.66667,14,4.66667C14,5.0348500000000005,13.7015,5.33333,13.3333,5.33333C12.9651,5.33333,12.6667,5.0348500000000005,12.6667,4.66667C12.6667,4.66667,12.6667,3.33333,12.6667,3.33333C12.6667,3.33333,8.66667,3.33333,8.66667,3.33333C8.66667,3.33333,8.66667,12.6667,8.66667,12.6667C8.66667,12.6667,10,12.6667,10,12.6667C10.3682,12.6667,10.66667,12.9651,10.66667,13.3333C10.66667,13.7015,10.3682,14,10,14C10,14,6,14,6,14C5.63181,14,5.33333,13.7015,5.33333,13.3333C5.33333,12.9651,5.63181,12.6667,6,12.6667C6,12.6667,7.33333,12.6667,7.33333,12.6667C7.33333,12.6667,7.33333,3.33333,7.33333,3.33333C7.33333,3.33333,3.33333,3.33333,3.33333,3.33333C3.33333,3.33333,3.33333,4.66667,3.33333,4.66667C3.33333,5.0348500000000005,3.03485,5.33333,2.666667,5.33333C2.298477,5.33333,2,5.0348500000000005,2,4.66667C2,4.66667,2,2.666667,2,2.666667C2,2.666667,2,2.666667,2,2.666667Z" fill-rule="evenodd" fill="#FFFFFF" fill-opacity="1"/></g></g></svg>