<svg xmlns="http://www.w3.org/2000/svg" xmlns:xlink="http://www.w3.org/1999/xlink" fill="none" version="1.1" width="16" height="16" viewBox="0 0 16 16"><defs><clipPath id="master_svg0_1480_6796"><rect x="0" y="0" width="16" height="16" rx="0"/></clipPath></defs><g clip-path="url(#master_svg0_1480_6796)"><g><path d="M7.33331298828125,2.6663378125C4.75598298828125,2.6663378125,2.66664298828125,4.7556778125,2.66664298828125,7.3330078125C2.66664298828125,9.9103378125,4.75598298828125,11.9997078125,7.33331298828125,11.9997078125C8.59058298828125,11.9997078125,9.73178298828125,11.5025078125,10.57091298828125,10.6939378125C10.58844298828125,10.6711378125,10.60764298828125,10.6491378125,10.62858298828125,10.6282778125C10.64944298828125,10.6073378125,10.67144298828125,10.5881378125,10.69424298828125,10.5706078125C11.50281298828125,9.7314778125,12.00001298828125,8.5902778125,12.00001298828125,7.3330078125C12.00001298828125,4.7556778125,9.91064298828125,2.6663378125,7.33331298828125,2.6663378125C7.33331298828125,2.6663378125,7.33331298828125,2.6663378125,7.33331298828125,2.6663378125ZM12.02121298828125,11.0781378125C12.84231298828125,10.0516778125,13.33331298828125,8.7496778125,13.33331298828125,7.3330078125C13.33331298828125,4.0192978125,10.64704298828125,1.3330078125,7.33331298828125,1.3330078125C4.01960298828125,1.3330078125,1.33331298828125,4.0192978125,1.33331298828125,7.3330078125C1.33331298828125,10.6467378125,4.01960298828125,13.3330078125,7.33331298828125,13.3330078125C8.74998298828125,13.3330078125,10.05198298828125,12.8420078125,11.07844298828125,12.0209078125C11.07844298828125,12.0209078125,13.52861298828125,14.4711078125,13.52861298828125,14.4711078125C13.78891298828125,14.7314078125,14.21101298828125,14.7314078125,14.47141298828125,14.4711078125C14.73171298828125,14.2107078125,14.73171298828125,13.7886078125,14.47141298828125,13.5283078125C14.47141298828125,13.5283078125,12.02121298828125,11.0781378125,12.02121298828125,11.0781378125C12.02121298828125,11.0781378125,12.02121298828125,11.0781378125,12.02121298828125,11.0781378125Z" fill-rule="evenodd" fill="#FFFFFF" fill-opacity="1"/></g></g></svg>