<svg xmlns="http://www.w3.org/2000/svg" xmlns:xlink="http://www.w3.org/1999/xlink" fill="none" version="1.1" width="16" height="16" viewBox="0 0 16 16"><defs><clipPath id="master_svg0_1480_6797"><rect x="0" y="0" width="16" height="16" rx="0"/></clipPath></defs><g clip-path="url(#master_svg0_1480_6797)"><g><path d="M0.6666259765625,1.9996748125C0.6666259765625,1.6314848125,0.9651029765625,1.3330078125,1.3332929765625,1.3330078125C1.3332929765625,1.3330078125,5.3332959765625,1.3330078125,5.3332959765625,1.3330078125C6.2173459765625,1.3330078125,7.0651959765625,1.6841968125,7.6902959765625,2.3093208125C7.8024959765625,2.4215078125,7.9058959765625,2.5408578125,7.9999559765625,2.6663178125C8.094025976562499,2.5408578125,8.1974259765625,2.4215078125,8.3096259765625,2.3093208125C8.9346959765625,1.6841968125,9.7825559765625,1.3330078125,10.6666259765625,1.3330078125C10.6666259765625,1.3330078125,14.6666259765625,1.3330078125,14.6666259765625,1.3330078125C15.0348259765625,1.3330078125,15.3333259765625,1.6314848125,15.3333259765625,1.9996748125C15.3333259765625,1.9996748125,15.3333259765625,11.9997078125,15.3333259765625,11.9997078125C15.3333259765625,12.3679078125,15.0348259765625,12.6663078125,14.6666259765625,12.6663078125C14.6666259765625,12.6663078125,9.9999559765625,12.6663078125,9.9999559765625,12.6663078125C9.6463559765625,12.6663078125,9.3072259765625,12.8068078125,9.0571559765625,13.0569078125C8.8070959765625,13.3069078125,8.6666259765625,13.6461078125,8.6666259765625,13.9997078125C8.6666259765625,14.3679078125,8.3681559765625,14.6663078125,7.9999559765625,14.6663078125C7.6317559765625,14.6663078125,7.3332959765625,14.3679078125,7.3332959765625,13.9997078125C7.3332959765625,13.6461078125,7.1928159765625,13.3069078125,6.9427659765625,13.0569078125C6.6927159765625,12.8068078125,6.3535759765625,12.6663078125,5.9999559765625,12.6663078125C5.9999559765625,12.6663078125,1.3332929765625,12.6663078125,1.3332929765625,12.6663078125C0.9651029765625,12.6663078125,0.6666259765625,12.3679078125,0.6666259765625,11.9997078125C0.6666259765625,11.9997078125,0.6666259765625,1.9996748125,0.6666259765625,1.9996748125C0.6666259765625,1.9996748125,0.6666259765625,1.9996748125,0.6666259765625,1.9996748125ZM7.3332959765625,11.6903078125C6.9313559765625,11.4582078125,6.4721159765625,11.3330078125,5.9999559765625,11.3330078125C5.9999559765625,11.3330078125,1.9999559765625,11.3330078125,1.9999559765625,11.3330078125C1.9999559765625,11.3330078125,1.9999559765625,2.6663378125,1.9999559765625,2.6663378125C1.9999559765625,2.6663378125,5.3332959765625,2.6663378125,5.3332959765625,2.6663378125C5.8637259765625,2.6663378125,6.3724359765625,2.8770578125,6.7475059765625,3.2521278125C7.1225759765625,3.6271978125,7.3332959765625,4.1359078125,7.3332959765625,4.6663378125C7.3332959765625,4.6663378125,7.3332959765625,11.6903078125,7.3332959765625,11.6903078125C7.3332959765625,11.6903078125,7.3332959765625,11.6903078125,7.3332959765625,11.6903078125ZM8.6666259765625,11.6903078125C9.0685559765625,11.4582078125,9.5278259765625,11.3330078125,9.9999559765625,11.3330078125C9.9999559765625,11.3330078125,13.9999259765625,11.3330078125,13.9999259765625,11.3330078125C13.9999259765625,11.3330078125,13.9999259765625,2.6663378125,13.9999259765625,2.6663378125C13.9999259765625,2.6663378125,10.6666259765625,2.6663378125,10.6666259765625,2.6663378125C10.1362259765625,2.6663378125,9.6274959765625,2.8770578125,9.2524259765625,3.2521278125C8.8773559765625,3.6271978125,8.6666259765625,4.1359078125,8.6666259765625,4.6663378125C8.6666259765625,4.6663378125,8.6666259765625,11.6903078125,8.6666259765625,11.6903078125C8.6666259765625,11.6903078125,8.6666259765625,11.6903078125,8.6666259765625,11.6903078125Z" fill-rule="evenodd" fill="#FFFFFF" fill-opacity="1"/></g></g></svg>