<svg xmlns="http://www.w3.org/2000/svg" xmlns:xlink="http://www.w3.org/1999/xlink" fill="none" version="1.1" width="16" height="16" viewBox="0 0 16 16"><defs><clipPath id="master_svg0_1480_6793"><rect x="0" y="0" width="16" height="16" rx="0"/></clipPath></defs><g clip-path="url(#master_svg0_1480_6793)"><g><path d="M2.666667,2C3.03485,2,3.33333,2.298477,3.33333,2.666667C3.33333,2.666667,3.33333,7.33333,3.33333,7.33333C3.33333,7.86377,3.54405,8.37247,3.91912,8.747530000000001C4.29419,9.1226,4.8029,9.33333,5.33333,9.33333C5.33333,9.33333,11.72387,9.33333,11.72387,9.33333C11.72387,9.33333,9.5286,7.13807,9.5286,7.13807C9.268270000000001,6.87772,9.268270000000001,6.45561,9.5286,6.19526C9.78893,5.93491,10.21107,5.93491,10.4714,6.19526C10.4714,6.19526,13.8047,9.5286,13.8047,9.5286C14.0651,9.78893,14.0651,10.21107,13.8047,10.4714C13.8047,10.4714,10.4714,13.8047,10.4714,13.8047C10.21107,14.0651,9.78893,14.0651,9.5286,13.8047C9.268270000000001,13.5444,9.268270000000001,13.1223,9.5286,12.8619C9.5286,12.8619,11.72387,10.66667,11.72387,10.66667C11.72387,10.66667,5.33333,10.66667,5.33333,10.66667C4.44928,10.66667,3.6014299999999997,10.31547,2.976313,9.69033C2.3511889999999998,9.06527,2,8.21739,2,7.33333C2,7.33333,2,2.666667,2,2.666667C2,2.298477,2.298477,2,2.666667,2C2.666667,2,2.666667,2,2.666667,2Z" fill-rule="evenodd" fill="#FFFFFF" fill-opacity="1"/></g></g></svg>