<svg xmlns="http://www.w3.org/2000/svg" xmlns:xlink="http://www.w3.org/1999/xlink" fill="none" version="1.1" width="24" height="24" viewBox="0 0 24 24"><defs><clipPath id="master_svg0_1625_3846"><rect x="0" y="0" width="24" height="24" rx="0"/></clipPath></defs><g clip-path="url(#master_svg0_1625_3846)"><g><rect x="0" y="0" width="24" height="24" rx="0" fill="#FFFFFF" fill-opacity="0.009999999776482582"/></g><g><path d="M3.974853515625,6.974853515625L19.974853515625,6.974853515625Q20.073353515625,6.974853515625,20.169953515625,6.955638515625Q20.266553515625,6.936423515625,20.357553515625,6.898732515625Q20.448553515625,6.861041515625,20.530453515625,6.806323515625Q20.612353515625,6.751604515625,20.681953515625,6.681960515625Q20.751653515625,6.612316515625,20.806353515625,6.530423515625Q20.861053515625,6.448531515625,20.898753515625,6.357536515625Q20.936453515625,6.266542515625,20.955653515625,6.169943515625Q20.974853515625,6.073344915625,20.974853515625,5.974853515625Q20.974853515625,5.876362115625,20.955653515625,5.779763515625Q20.936453515625,5.683164515625,20.898753515625,5.592170515625Q20.861053515625,5.501175515625,20.806353515625,5.419283515625Q20.751653515625,5.337390515625,20.681953515625,5.267746515625Q20.612353515625,5.198102515625,20.530453515625,5.143383515625Q20.448553515625,5.088665515625,20.357553515625,5.050974515625Q20.266553515625,5.013283515625,20.169953515625,4.994068515625Q20.073353515625,4.974853515625,19.974853515625,4.974853515625L3.974853515625,4.974853515625Q3.876362115625,4.974853515625,3.779763515625,4.994068515625Q3.683164515625,5.013283515625,3.592170515625,5.050974515625Q3.501175515625,5.088665515625,3.419283515625,5.143383515625Q3.337390515625,5.198102515625,3.267746515625,5.267746515625Q3.198102515625,5.337390515625,3.143383515625,5.419283515625Q3.0886655156250002,5.501175515625,3.050974515625,5.592170515625Q3.013283515625,5.683164515625,2.994068515625,5.779763515625Q2.974853515625,5.876362115625,2.974853515625,5.974853515625Q2.974853515625,6.073344915625,2.994068515625,6.169943515625Q3.013283515625,6.266542515625,3.050974515625,6.357536515625Q3.0886655156250002,6.448531515625,3.143383515625,6.530423515625Q3.198102515625,6.612316515625,3.267746515625,6.681960515625Q3.337390515625,6.751604515625,3.419283515625,6.806323515625Q3.501175515625,6.861041515625,3.592170515625,6.898732515625Q3.683164515625,6.936423515625,3.779763515625,6.955638515625Q3.876362115625,6.974853515625,3.974853515625,6.974853515625Z" fill-rule="evenodd" fill="#333333" fill-opacity="1"/></g><g><path d="M3.974853515625,12.974853515625L19.974853515625,12.974853515625Q20.073353515625,12.974853515625,20.169953515625,12.955638515625001Q20.266553515625,12.936423515625,20.357553515625,12.898732515625Q20.448553515625,12.861041515625,20.530453515625,12.806323515625Q20.612353515625,12.751604515625,20.681953515625,12.681960515625Q20.751653515625,12.612316515625,20.806353515625,12.530423515625Q20.861053515625,12.448531515625,20.898753515625,12.357536515625Q20.936453515625,12.266542515625,20.955653515625,12.169943515625Q20.974853515625,12.073344915625,20.974853515625,11.974853515625Q20.974853515625,11.876362115625,20.955653515625,11.779763515625Q20.936453515625,11.683164515625,20.898753515625,11.592170515625Q20.861053515625,11.501175515625,20.806353515625,11.419283515625Q20.751653515625,11.337390515625,20.681953515625,11.267746515625Q20.612353515625,11.198102515625,20.530453515625,11.143383515625Q20.448553515625,11.088665515625,20.357553515625,11.050974515625Q20.266553515625,11.013283515625,20.169953515625,10.994068515624999Q20.073353515625,10.974853515625,19.974853515625,10.974853515625L3.974853515625,10.974853515625Q3.876362115625,10.974853515625,3.779763515625,10.994068515624999Q3.683164515625,11.013283515625,3.592170515625,11.050974515625Q3.501175515625,11.088665515625,3.419283515625,11.143383515625Q3.337390515625,11.198102515625,3.267746515625,11.267746515625Q3.198102515625,11.337390515625,3.143383515625,11.419283515625Q3.0886655156250002,11.501175515625,3.050974515625,11.592170515625Q3.013283515625,11.683164515625,2.994068515625,11.779763515625Q2.974853515625,11.876362115625,2.974853515625,11.974853515625Q2.974853515625,12.073344915625,2.994068515625,12.169943515625Q3.013283515625,12.266542515625,3.050974515625,12.357536515625Q3.0886655156250002,12.448531515625,3.143383515625,12.530423515625Q3.198102515625,12.612316515625,3.267746515625,12.681960515625Q3.337390515625,12.751604515625,3.419283515625,12.806323515625Q3.501175515625,12.861041515625,3.592170515625,12.898732515625Q3.683164515625,12.936423515625,3.779763515625,12.955638515625001Q3.876362115625,12.974853515625,3.974853515625,12.974853515625Z" fill-rule="evenodd" fill="#333333" fill-opacity="1"/></g><g><path d="M3.974853515625,18.974853515625L19.974853515625,18.974853515625Q20.073353515625,18.974853515625,20.169953515625,18.955638515625Q20.266553515625,18.936423515625002,20.357553515625,18.898732515625Q20.448553515625,18.861041515625,20.530453515625,18.806323515625Q20.612353515625,18.751604515625,20.681953515625,18.681960515625Q20.751653515625,18.612316515625,20.806353515625,18.530423515625Q20.861053515625,18.448531515625,20.898753515625,18.357536515625Q20.936453515625,18.266542515625,20.955653515625,18.169943515625Q20.974853515625,18.073344915625,20.974853515625,17.974853515625Q20.974853515625,17.876362115625,20.955653515625,17.779763515625Q20.936453515625,17.683164515625,20.898753515625,17.592170515625Q20.861053515625,17.501175515625,20.806353515625,17.419283515625Q20.751653515625,17.337390515625,20.681953515625,17.267746515625Q20.612353515625,17.198102515625,20.530453515625,17.143383515625Q20.448553515625,17.088665515625,20.357553515625,17.050974515625Q20.266553515625,17.013283515624998,20.169953515625,16.994068515625Q20.073353515625,16.974853515625,19.974853515625,16.974853515625L3.974853515625,16.974853515625Q3.876362115625,16.974853515625,3.779763515625,16.994068515625Q3.683164515625,17.013283515624998,3.592170515625,17.050974515625Q3.501175515625,17.088665515625,3.419283515625,17.143383515625Q3.337390515625,17.198102515625,3.267746515625,17.267746515625Q3.198102515625,17.337390515625,3.143383515625,17.419283515625Q3.0886655156250002,17.501175515625,3.050974515625,17.592170515625Q3.013283515625,17.683164515625,2.994068515625,17.779763515625Q2.974853515625,17.876362115625,2.974853515625,17.974853515625Q2.974853515625,18.073344915625,2.994068515625,18.169943515625Q3.013283515625,18.266542515625,3.050974515625,18.357536515625Q3.0886655156250002,18.448531515625,3.143383515625,18.530423515625Q3.198102515625,18.612316515625,3.267746515625,18.681960515625Q3.337390515625,18.751604515625,3.419283515625,18.806323515625Q3.501175515625,18.861041515625,3.592170515625,18.898732515625Q3.683164515625,18.936423515625002,3.779763515625,18.955638515625Q3.876362115625,18.974853515625,3.974853515625,18.974853515625Z" fill-rule="evenodd" fill="#333333" fill-opacity="1"/></g></g></svg>