<svg xmlns="http://www.w3.org/2000/svg" xmlns:xlink="http://www.w3.org/1999/xlink" fill="none" version="1.1" width="24" height="24.000001907348633" viewBox="0 0 24 24.000001907348633"><defs><clipPath id="master_svg0_1480_5635"><rect x="0" y="0" width="24" height="24.000001907348633" rx="0"/></clipPath></defs><g clip-path="url(#master_svg0_1480_5635)"><g><path d="M9.62346625,12.003671875L17.554706250000002,4.072461875C18.13830625,3.488871875,18.13830625,2.534961875,17.554706250000002,1.951366875C16.97110625,1.367773875,16.01720625,1.367773875,15.43361625,1.951366875L6.44065025,10.944341875C6.29533725,11.089651875,6.18518125,11.258401875,6.11252525,11.438871875C5.98596265,11.755271875,5.96955605,12.106871875,6.06564995,12.432571875C6.07971265,12.479471875,6.09611845,12.524071875,6.11252525,12.570871875C6.18518125,12.751371875,6.29533725,12.920071875,6.44065025,13.065471875L15.43127625,22.056071875C16.01490625,22.639671875,16.96880625,22.639671875,17.55240625,22.056071875C18.13600625,21.472471875,18.13600625,20.518571875,17.55240625,19.934971875L9.62346625,12.003671875Z" fill="#3D3D3D" fill-opacity="1"/></g></g></svg>