<svg xmlns="http://www.w3.org/2000/svg" xmlns:xlink="http://www.w3.org/1999/xlink" fill="none" version="1.1" width="24" height="24.000001907348633" viewBox="0 0 24 24.000001907348633"><defs><clipPath id="master_svg0_1480_5637"><rect x="0" y="0" width="24" height="24.000001907348633" rx="0"/></clipPath></defs><g clip-path="url(#master_svg0_1480_5637)"><g><path d="M14.37285625,12.003671875L6.44160125,19.934971875C5.85800725,20.518571875,5.85800725,21.472471875,6.44160125,22.056071875C7.0251962500000005,22.639671875,7.97910625,22.639671875,8.56269625,22.056071875L17.55330625,13.065471875C17.698606249999997,12.920071875,17.80880625,12.751371875,17.881406249999998,12.570871875C18.00800625,12.254471875,18.02440625,11.902971875,17.92830625,11.577171875C17.91430625,11.530271875,17.897806250000002,11.485741875,17.881406249999998,11.438871875C17.80880625,11.258401875,17.698606249999997,11.089651875,17.55330625,10.944341875L8.56269625,1.951366875C7.97910625,1.367773875,7.0251962500000005,1.367773875,6.44160125,1.951366875C5.85800725,2.534961875,5.85800725,3.488871875,6.44160125,4.072461875L14.37285625,12.003671875Z" fill="#3D3D3D" fill-opacity="1"/></g></g></svg>